<svg width="147" height="37" viewBox="0 0 147 37" fill="none" xmlns="http://www.w3.org/2000/svg">
<path d="M24.152 2.64V7.104H15.272V36H9.8V7.104H0.872V2.64H24.152ZM35.1658 13.392C35.9658 12.048 37.0218 11.008 38.3338 10.272C39.6778 9.504 41.2618 9.12 43.0858 9.12V14.784H41.6938C39.5498 14.784 37.9178 15.328 36.7978 16.416C35.7098 17.504 35.1658 19.392 35.1658 22.08V36H29.6938V9.552H35.1658V13.392ZM72.3556 22.128C72.3556 23.12 72.2916 24.016 72.1636 24.816H51.9556C52.1156 26.928 52.8996 28.624 54.3076 29.904C55.7156 31.184 57.4436 31.824 59.4916 31.824C62.4356 31.824 64.5156 30.592 65.7316 28.128H71.6356C70.8356 30.56 69.3796 32.56 67.2676 34.128C65.1876 35.664 62.5956 36.432 59.4916 36.432C56.9636 36.432 54.6916 35.872 52.6756 34.752C50.6916 33.6 49.1236 32 47.9716 29.952C46.8516 27.872 46.2916 25.472 46.2916 22.752C46.2916 20.032 46.8356 17.648 47.9236 15.6C49.0436 13.52 50.5956 11.92 52.5796 10.8C54.5956 9.68 56.8996 9.12 59.4916 9.12C61.9876 9.12 64.2116 9.664 66.1636 10.752C68.1156 11.84 69.6356 13.376 70.7236 15.36C71.8116 17.312 72.3556 19.568 72.3556 22.128ZM66.6436 20.4C66.6116 18.384 65.8916 16.768 64.4836 15.552C63.0756 14.336 61.3316 13.728 59.2516 13.728C57.3636 13.728 55.7476 14.336 54.4036 15.552C53.0596 16.736 52.2596 18.352 52.0036 20.4H66.6436ZM83.2126 0.48V36H77.7406V0.48H83.2126ZM101.869 36.432C99.3729 36.432 97.1169 35.872 95.1009 34.752C93.0849 33.6 91.5009 32 90.3489 29.952C89.1969 27.872 88.6209 25.472 88.6209 22.752C88.6209 20.064 89.2129 17.68 90.3969 15.6C91.5809 13.52 93.1969 11.92 95.2449 10.8C97.2929 9.68 99.5809 9.12 102.109 9.12C104.637 9.12 106.925 9.68 108.973 10.8C111.021 11.92 112.637 13.52 113.821 15.6C115.005 17.68 115.597 20.064 115.597 22.752C115.597 25.44 114.989 27.824 113.773 29.904C112.557 31.984 110.893 33.6 108.781 34.752C106.701 35.872 104.397 36.432 101.869 36.432ZM101.869 31.68C103.277 31.68 104.589 31.344 105.805 30.672C107.053 30 108.061 28.992 108.829 27.648C109.597 26.304 109.981 24.672 109.981 22.752C109.981 20.832 109.613 19.216 108.877 17.904C108.141 16.56 107.165 15.552 105.949 14.88C104.733 14.208 103.421 13.872 102.013 13.872C100.605 13.872 99.2929 14.208 98.0769 14.88C96.8929 15.552 95.9489 16.56 95.2449 17.904C94.5409 19.216 94.1889 20.832 94.1889 22.752C94.1889 25.6 94.9089 27.808 96.3489 29.376C97.8209 30.912 99.6609 31.68 101.869 31.68ZM132.478 36.432C129.982 36.432 127.726 35.872 125.71 34.752C123.694 33.6 122.11 32 120.958 29.952C119.806 27.872 119.23 25.472 119.23 22.752C119.23 20.064 119.822 17.68 121.006 15.6C122.19 13.52 123.806 11.92 125.854 10.8C127.902 9.68 130.19 9.12 132.718 9.12C135.246 9.12 137.534 9.68 139.582 10.8C141.63 11.92 143.246 13.52 144.43 15.6C145.614 17.68 146.206 20.064 146.206 22.752C146.206 25.44 145.598 27.824 144.382 29.904C143.166 31.984 141.502 33.6 139.39 34.752C137.31 35.872 135.006 36.432 132.478 36.432ZM132.478 31.68C133.886 31.68 135.198 31.344 136.414 30.672C137.662 30 138.67 28.992 139.438 27.648C140.206 26.304 140.59 24.672 140.59 22.752C140.59 20.832 140.222 19.216 139.486 17.904C138.75 16.56 137.774 15.552 136.558 14.88C135.342 14.208 134.03 13.872 132.622 13.872C131.214 13.872 129.902 14.208 128.686 14.88C127.502 15.552 126.558 16.56 125.854 17.904C125.15 19.216 124.798 20.832 124.798 22.752C124.798 25.6 125.518 27.808 126.958 29.376C128.43 30.912 130.27 31.68 132.478 31.68Z" fill="#3E86F5"/>
</svg>
